<svg width="239" height="39" viewBox="0 0 239 39" fill="none" xmlns="http://www.w3.org/2000/svg">
<g id="The Digital Ba Logo">
<path id="Fill 51" fill-rule="evenodd" clip-rule="evenodd" d="M57.9682 18.6998H54.1488V25.6817C54.1488 26.2643 54.2942 26.6886 54.588 26.9577C54.881 27.2252 55.3084 27.3769 55.8724 27.4104C56.4356 27.444 57.134 27.4381 57.9682 27.3929V31.3206C54.9706 31.656 52.8578 31.376 51.63 30.4814C50.4007 29.5868 49.7868 27.9871 49.7868 25.6817V18.6998H46.8457V14.5381H49.7868V9.83899H54.1488V14.5381H57.9682V18.6998Z" fill="white"/>
<path id="Fill 53" fill-rule="evenodd" clip-rule="evenodd" d="M69.0904 14.0678C70.9387 14.0678 72.4655 14.6846 73.6713 15.9146C74.8763 17.1446 75.4792 18.8456 75.4792 21.0162V31.3206H71.1194V21.5535C71.1194 20.4343 70.8154 19.5784 70.2066 18.9849C69.5971 18.3928 68.7864 18.0954 67.7722 18.0954C66.645 18.0954 65.7432 18.4432 65.0669 19.1365C64.392 19.8299 64.0535 20.8711 64.0535 22.2578V31.3206H59.6921V7.8252H64.0535V16.4177C65.1124 14.8516 66.7919 14.0678 69.0904 14.0678Z" fill="white"/>
<path id="Fill 55" fill-rule="evenodd" clip-rule="evenodd" d="M81.4632 21.3513H90.0838C89.8356 20.2103 89.3237 19.3608 88.546 18.8002C87.7684 18.2417 86.8835 17.961 85.8921 17.961C84.7201 17.961 83.7507 18.2592 82.9848 18.8512C82.2181 19.444 81.7114 20.2773 81.4632 21.3513ZM81.5315 24.7081C82.1175 26.8123 83.7059 27.8629 86.2975 27.8629C87.9652 27.8629 89.2268 27.3044 90.0838 26.1853L93.5991 28.1991C91.9314 30.5934 89.475 31.7899 86.2299 31.7899C83.4357 31.7899 81.193 30.9514 79.5025 29.273C77.812 27.5946 76.9675 25.4802 76.9675 22.9291C76.9675 20.4005 77.801 18.2912 79.4687 16.6019C81.1372 14.9126 83.2778 14.0675 85.8921 14.0675C88.3706 14.0675 90.4157 14.9184 92.0276 16.6194C93.6388 18.3189 94.4451 20.4239 94.4451 22.9291C94.4451 23.489 94.3886 24.0818 94.2755 24.7081H81.5315Z" fill="white"/>
<path id="Fill 57" fill-rule="evenodd" clip-rule="evenodd" d="M109.786 26.8902C111.837 26.8902 113.505 26.2128 114.789 24.8596C116.074 23.5056 116.717 21.7434 116.717 19.5729C116.717 17.4023 116.074 15.6408 114.789 14.2868C113.505 12.9322 111.837 12.2556 109.786 12.2556H105.054V26.8902H109.786ZM109.786 7.8255C113.032 7.8255 115.742 8.95561 117.916 11.2151C120.091 13.4753 121.179 16.2612 121.179 19.5728C121.179 22.8852 120.091 25.6704 117.916 27.9298C115.742 30.1908 113.032 31.3202 109.786 31.3202H100.388V7.8255H109.786Z" fill="white"/>
<path id="Fill 59" fill-rule="evenodd" clip-rule="evenodd" d="M122.937 31.32H127.297V14.5381H122.937V31.32ZM125.1 12.5244C124.378 12.5244 123.753 12.2612 123.225 11.7362C122.695 11.2091 122.429 10.5893 122.429 9.87261C122.429 9.15736 122.695 8.53033 123.225 7.99298C123.753 7.45636 124.378 7.18732 125.1 7.18732C125.844 7.18732 126.48 7.45636 127.01 7.99298C127.54 8.53033 127.805 9.15736 127.805 9.87261C127.805 10.5893 127.54 11.2091 127.01 11.7362C126.48 12.2612 125.844 12.5244 125.1 12.5244Z" fill="white"/>
<path id="Fill 61" fill-rule="evenodd" clip-rule="evenodd" d="M134.752 25.967C135.642 26.8288 136.774 27.259 138.15 27.259C139.524 27.259 140.656 26.8288 141.547 25.967C142.437 25.1059 142.882 24.0035 142.882 22.6605C142.882 21.3408 142.437 20.2501 141.547 19.3883C140.656 18.5265 139.524 18.0956 138.15 18.0956C136.774 18.0956 135.642 18.5265 134.752 19.3883C133.861 20.2501 133.417 21.3408 133.417 22.6605C133.417 24.0035 133.861 25.1059 134.752 25.967ZM142.882 14.5383H147.141V30.5144C147.141 33.1108 146.279 35.091 144.556 36.4559C142.831 37.8201 140.752 38.5032 138.318 38.5032C136.493 38.5032 134.888 38.1554 133.501 37.4621C132.115 36.7687 131.05 35.7509 130.306 34.4086L134.025 32.2934C134.882 33.8596 136.358 34.6433 138.454 34.6433C139.828 34.6433 140.91 34.2854 141.699 33.5694C142.487 32.8534 142.882 31.8348 142.882 30.5144V28.7019C141.597 30.4029 139.794 31.253 137.473 31.253C135.084 31.253 133.084 30.4196 131.472 28.7522C129.861 27.0862 129.055 25.0556 129.055 22.6605C129.055 20.2887 129.867 18.264 131.49 16.5856C133.113 14.9072 135.106 14.068 137.473 14.068C139.794 14.068 141.597 14.9189 142.882 16.6199V14.5383Z" fill="white"/>
<path id="Fill 62" fill-rule="evenodd" clip-rule="evenodd" d="M149.744 31.32H154.104V14.5381H149.744V31.32ZM151.908 12.5244C151.187 12.5244 150.56 12.2612 150.032 11.7362C149.501 11.2091 149.238 10.5893 149.238 9.87261C149.238 9.15736 149.501 8.53033 150.032 7.99298C150.56 7.45636 151.187 7.18732 151.908 7.18732C152.651 7.18732 153.288 7.45636 153.818 7.99298C154.347 8.53033 154.612 9.15736 154.612 9.87261C154.612 10.5893 154.347 11.2091 153.818 11.7362C153.288 12.2612 152.651 12.5244 151.908 12.5244Z" fill="white"/>
<path id="Fill 63" fill-rule="evenodd" clip-rule="evenodd" d="M166.41 18.6998H162.591V25.6817C162.591 26.2643 162.736 26.6886 163.029 26.9577C163.323 27.2252 163.751 27.3769 164.314 27.4104C164.877 27.444 165.576 27.4381 166.41 27.3929V31.3206C163.412 31.656 161.3 31.376 160.071 30.4814C158.843 29.5868 158.229 27.9871 158.229 25.6817V18.6998H155.288V14.5381H158.229V9.85576L162.591 9.83899V14.5381H166.41V18.6998Z" fill="white"/>
<path id="Fill 64" fill-rule="evenodd" clip-rule="evenodd" d="M172.429 26.3358C173.307 27.2202 174.423 27.6621 175.775 27.6621C177.127 27.6621 178.248 27.2202 179.139 26.3358C180.03 25.4522 180.474 24.3169 180.474 22.9295C180.474 21.5427 180.03 20.4068 179.139 19.5231C178.248 18.6379 177.127 18.1961 175.775 18.1961C174.423 18.1961 173.307 18.6379 172.429 19.5231C171.55 20.4068 171.11 21.5427 171.11 22.9295C171.11 24.3169 171.55 25.4522 172.429 26.3358ZM180.474 14.5381H184.835V31.32H180.474V29.3404C179.167 30.9736 177.33 31.7902 174.964 31.7902C172.71 31.7902 170.777 30.9343 169.166 29.2231C167.554 27.5104 166.749 25.4127 166.749 22.9294C166.749 20.4454 167.554 18.347 169.166 16.6358C170.777 14.9246 172.71 14.0679 174.964 14.0679C177.33 14.0679 179.167 14.8845 180.474 16.5184V14.5381Z" fill="white"/>
<path id="Fill 65" fill-rule="evenodd" clip-rule="evenodd" d="M187.438 31.3207H191.798V7.82529H187.438V31.3207Z" fill="white"/>
<path id="Fill 66" fill-rule="evenodd" clip-rule="evenodd" d="M208.772 26.9909C209.56 26.9909 210.215 26.7277 210.733 26.2013C211.251 25.6763 211.511 25.0107 211.511 24.205C211.511 23.4219 211.251 22.7672 210.733 22.2415C210.215 21.7158 209.56 21.4519 208.772 21.4519H203.397V26.9909H208.772ZM208.062 12.1544H203.397V17.3237H208.062C208.784 17.3237 209.386 17.0773 209.871 16.5859C210.356 16.093 210.597 15.4776 210.597 14.7391C210.597 14.0019 210.361 13.3858 209.888 12.893C209.414 12.4015 208.806 12.1544 208.062 12.1544ZM213.032 19.137C215.105 20.3225 216.142 22.1132 216.142 24.5076C216.142 26.4995 215.431 28.132 214.012 29.4072C212.592 30.6824 210.845 31.3203 208.772 31.3203H198.732V7.82492H208.062C210.09 7.82492 211.798 8.44612 213.184 9.68851C214.571 10.9302 215.262 12.5131 215.262 14.4372C215.262 16.3846 214.519 17.9507 213.032 19.137Z" fill="#EB175C"/>
<path id="Fill 67" fill-rule="evenodd" clip-rule="evenodd" d="M224.118 22.7611H230.778L227.364 13.1617L224.118 22.7611ZM233.824 31.3201L232.32 27.0913H222.599L221.179 31.3201H216.143L224.424 7.82541H230.205L238.553 31.3201H233.824Z" fill="#EB175C"/>
<path id="Fill 68" fill-rule="evenodd" clip-rule="evenodd" d="M16.5967 3.23679H0.14209V35.9102H16.5967C25.6843 35.9102 33.0513 28.5965 33.0513 19.5738H16.5967V3.23679Z" fill="#004CFF"/>
<path id="Fill 69" fill-rule="evenodd" clip-rule="evenodd" d="M0.142334 19.5727C0.142334 28.5953 7.50936 35.9097 16.597 35.9097V19.5727H0.142334Z" fill="#1B00BD"/>
<path id="Fill 70" fill-rule="evenodd" clip-rule="evenodd" d="M33.0513 19.5727C33.0513 28.5953 25.6843 35.9097 16.5967 35.9097V19.5727H33.0513Z" fill="#004CFF"/>
<path id="Fill 71" fill-rule="evenodd" clip-rule="evenodd" d="M0.142334 19.5737C0.142334 10.551 7.50936 3.2366 16.597 3.2366V19.5737H0.142334Z" fill="#004CFF"/>
<path id="Fill 72" fill-rule="evenodd" clip-rule="evenodd" d="M19.4958 0.357574V16.6946H35.9505C35.9505 7.67196 28.5835 0.357574 19.4958 0.357574Z" fill="#EB175C"/>
</g>
</svg>
